<svg width="14" height="14" viewBox="0 0 14 14" fill="none" xmlns="http://www.w3.org/2000/svg">
<path d="M11.2473 8.18453L7.30977 12.122C7.26914 12.1627 7.22089 12.195 7.16778 12.217C7.11467 12.239 7.05774 12.2503 7.00024 12.2503C6.94275 12.2503 6.88582 12.239 6.83271 12.217C6.7796 12.195 6.73134 12.1627 6.69071 12.122L2.75321 8.18453C2.67112 8.10244 2.625 7.9911 2.625 7.875C2.625 7.7589 2.67112 7.64756 2.75321 7.56547C2.8353 7.48338 2.94665 7.43726 3.06274 7.43726C3.17884 7.43726 3.29018 7.48338 3.37227 7.56547L6.56274 10.7565V2.1875C6.56274 2.07147 6.60884 1.96019 6.69088 1.87814C6.77293 1.79609 6.88421 1.75 7.00024 1.75C7.11628 1.75 7.22756 1.79609 7.3096 1.87814C7.39165 1.96019 7.43774 2.07147 7.43774 2.1875V10.7565L10.6282 7.56547C10.7103 7.48338 10.8216 7.43726 10.9377 7.43726C11.0538 7.43726 11.1652 7.48338 11.2473 7.56547C11.3294 7.64756 11.3755 7.7589 11.3755 7.875C11.3755 7.9911 11.3294 8.10244 11.2473 8.18453Z" fill="#0D1012"/>
</svg>
