<svg width="32" height="32" viewBox="0 0 32 32" fill="none" xmlns="http://www.w3.org/2000/svg">
<path d="M27.7963 20.8072L21.9075 18.1685L21.8913 18.161C21.5856 18.0302 21.2521 17.9778 20.921 18.0083C20.5899 18.0389 20.2716 18.1515 19.995 18.336C19.9624 18.3575 19.9311 18.3809 19.9013 18.406L16.8588 20.9997C14.9313 20.0635 12.9413 18.0885 12.005 16.186L14.6025 13.0972C14.6275 13.066 14.6513 13.0347 14.6738 13.001C14.8543 12.7251 14.9638 12.4089 14.9926 12.0805C15.0214 11.752 14.9686 11.4216 14.8388 11.1185V11.1035L12.1925 5.20475C12.0209 4.80883 11.7259 4.47902 11.3515 4.26455C10.9771 4.05007 10.5433 3.96245 10.115 4.01475C8.42122 4.23763 6.86649 5.06946 5.74118 6.35487C4.61587 7.64028 3.99695 9.29136 4.00001 10.9997C4.00001 20.9247 12.075 28.9997 22 28.9997C23.7084 29.0028 25.3595 28.3839 26.6449 27.2586C27.9303 26.1333 28.7621 24.5785 28.985 22.8847C29.0374 22.4566 28.95 22.0229 28.7357 21.6485C28.5215 21.2741 28.1919 20.979 27.7963 20.8072ZM22 26.9997C17.758 26.9951 13.691 25.3079 10.6914 22.3083C7.69184 19.3088 6.00464 15.2418 6.00001 10.9997C5.99531 9.77911 6.43507 8.59849 7.23718 7.67838C8.03929 6.75827 9.14889 6.16158 10.3588 5.99975C10.3583 6.00473 10.3583 6.00976 10.3588 6.01475L12.9838 11.8897L10.4 14.9822C10.3738 15.0124 10.35 15.0446 10.3288 15.0785C10.1407 15.3671 10.0303 15.6995 10.0084 16.0433C9.9865 16.3872 10.0538 16.7308 10.2038 17.041C11.3363 19.3572 13.67 21.6735 16.0113 22.8047C16.3237 22.9533 16.6694 23.0183 17.0144 22.9933C17.3595 22.9683 17.6922 22.8543 17.98 22.6622C18.0121 22.6406 18.043 22.6173 18.0725 22.5922L21.1113 19.9997L26.9863 22.631C26.9863 22.631 26.9963 22.631 27 22.631C26.8402 23.8426 26.2444 24.9544 25.3241 25.7585C24.4038 26.5626 23.2221 27.0039 22 26.9997Z" fill="#0D1012"/>
</svg>
