<svg width="14" height="14" viewBox="0 0 14 14" fill="none" xmlns="http://www.w3.org/2000/svg">
<path d="M11.2473 6.43488C11.2066 6.47555 11.1584 6.50782 11.1053 6.52984C11.0522 6.55186 10.9952 6.56319 10.9377 6.56319C10.8802 6.56319 10.8233 6.55186 10.7702 6.52984C10.7171 6.50782 10.6688 6.47555 10.6282 6.43488L7.43774 3.24386V11.8128C7.43774 11.9289 7.39165 12.0402 7.3096 12.1222C7.22756 12.2042 7.11628 12.2503 7.00024 12.2503C6.88421 12.2503 6.77293 12.2042 6.69088 12.1222C6.60884 12.0402 6.56274 11.9289 6.56274 11.8128V3.24386L3.37227 6.43488C3.29018 6.51697 3.17884 6.56309 3.06274 6.56309C2.94665 6.56309 2.8353 6.51697 2.75321 6.43488C2.67112 6.35278 2.625 6.24144 2.625 6.12534C2.625 6.00925 2.67112 5.89791 2.75321 5.81581L6.69071 1.87831C6.73134 1.83764 6.7796 1.80537 6.83271 1.78335C6.88582 1.76133 6.94275 1.75 7.00024 1.75C7.05774 1.75 7.11467 1.76133 7.16778 1.78335C7.22089 1.80537 7.26914 1.83764 7.30977 1.87831L11.2473 5.81581C11.288 5.85644 11.3202 5.9047 11.3422 5.95781C11.3643 6.01092 11.3756 6.06785 11.3756 6.12534C11.3756 6.18284 11.3643 6.23977 11.3422 6.29288C11.3202 6.34599 11.288 6.39424 11.2473 6.43488Z" fill="#0D1012"/>
</svg>
