<svg width="112" height="41" viewBox="0 0 112 41" fill="none" xmlns="http://www.w3.org/2000/svg">
<path d="M83.7875 17.9074C80.809 17.9074 78.219 19 76.0915 21.1852C73.9085 23.3704 72.8725 26 72.8725 29.0556C72.8725 32.1111 73.9085 34.7407 76.0915 36.8704C78.219 39.0556 80.7905 40.1481 83.7875 40.1481C86.7845 40.1481 89.4115 39.0556 91.5945 36.8704C93.722 34.7407 94.8135 32.1111 94.8135 29.0556C94.8135 26 93.722 23.3704 91.5945 21.1852C89.4115 19 86.8215 17.9074 83.7875 17.9074ZM87.913 33.1296C86.8215 34.2778 85.4525 34.8518 83.843 34.8518C82.289 34.8518 80.92 34.2778 79.773 33.1296C78.6815 31.9815 78.0525 30.6111 78.0525 29C78.0525 27.3333 78.6815 25.963 79.773 24.8704C80.8645 23.7222 82.2335 23.1481 83.843 23.2037C85.4525 23.1481 86.8215 23.7222 87.9685 24.8704C89.06 25.963 89.578 27.3333 89.6335 29C89.578 30.5926 89.0045 31.9815 87.913 33.1296ZM14.4865 17.6852C16.096 17.6852 17.576 18.1481 19.019 19.0556C20.277 19.9259 21.313 21.1296 21.9975 22.5556H27.5105C26.715 19.6296 25.161 17.1667 22.756 15.3148C20.351 13.3704 17.539 12.4444 14.4865 12.4444C10.694 12.4444 7.60446 13.7593 4.95896 16.463C2.25796 19.1667 0.944458 22.3704 0.944458 26.1667C0.944458 29.9074 2.25796 33.2222 4.95896 35.9259C7.60446 38.5741 10.7495 39.8889 14.542 39.8889C17.576 39.8889 20.388 38.963 22.8115 37.0741C25.161 35.1296 26.7705 32.7593 27.566 29.8333H22.053C21.3685 31.2778 20.3325 32.4259 19.0745 33.3333C17.6315 34.2037 16.207 34.6481 14.542 34.6481C12.1925 34.6481 10.2315 33.7778 8.64046 32.1852C6.97546 30.5185 6.17996 28.5741 6.23546 26.2222C6.17996 23.8704 6.97546 21.9074 8.64046 20.2593C10.1945 18.537 12.1925 17.6852 14.4865 17.6852ZM54.0765 19.2407C52.245 18.2593 50.2285 17.7963 47.9345 17.8704C44.3825 17.8148 41.9035 18.7963 40.479 20.6852C39.554 21.8333 39.11 23.3889 38.9805 25.2778H44.253C44.364 24.3519 44.66 23.7222 44.993 23.3333C45.5665 22.6481 46.4915 22.2407 47.805 22.2963C48.8965 22.2407 49.7475 22.463 50.395 22.8148C51.024 23.1111 51.2645 23.7407 51.32 24.5926C51.32 25.2778 50.913 25.8519 50.1175 26.2037L46.0475 26.8333C44.1605 27.0556 42.662 27.5185 41.515 28.2037C39.5725 29.3518 38.592 31.2407 38.6475 33.9444C38.592 35.8333 39.221 37.3333 40.4235 38.4815C41.515 39.4074 42.9395 39.9259 44.734 39.9815C47.6015 39.9259 49.8955 39.2407 51.505 37.7963V39.9815H56.7775V24.4815C56.7035 21.9259 55.797 20.1481 54.0765 19.2407ZM51.1535 31.3518C51.1535 33.1852 50.6355 34.4444 49.655 35.1481C48.619 35.8333 47.583 36.2407 46.3805 36.2407C45.6405 36.2407 45.0115 36.0185 44.4935 35.6111C43.9755 35.1481 43.7535 34.5185 43.7535 33.537C43.7535 32.4444 44.1605 31.7037 45.0115 31.1296C45.5295 30.8333 46.3805 30.5556 47.472 30.4444L50.1175 29.7593L51.1535 29.1852V31.3518ZM30.2115 12.463H35.484V39.963H30.2115V12.463ZM71.004 18.0926L68.9875 18.6667C67.5445 19.2407 66.2865 20.2222 65.2505 21.6481V18.9444L60.2555 18.8889V40.0185H65.4725V29.9074C65.4725 28.1852 65.6945 26.9815 66.157 26.1667C66.5085 25.3704 67.193 24.6667 67.9885 24.1481C68.9135 23.5185 69.8755 23.2222 70.856 23.2222L72.4655 23.3333L72.41 17.9444L71.004 18.0926ZM105.062 2.62963L92.39 15.3889L95.72 18.7222L108.392 5.98148L105.062 2.62963ZM82.067 0H86.766V13.6667H82.067V0ZM98.014 24H111.944V28.7037H98.014V24Z" fill="#EC1D25"/>
</svg>
