<svg width="116" height="48" viewBox="0 0 116 48" fill="none" xmlns="http://www.w3.org/2000/svg">
<g clip-path="url(#clip0_63_466)">
<path fill-rule="evenodd" clip-rule="evenodd" d="M76.4494 29.2575C71.0379 37.4047 59.6271 44.6744 50.688 44.6744C41.7486 44.6744 36.3969 38.4951 35.8765 30.924H35.2828C34.4405 40.7509 39.5294 47.8783 48.9566 47.8783C58.3838 47.8783 70.749 39.7449 76.7424 29.2575H76.4494ZM65.5544 0.0500488C74.6508 0.0500488 80.1591 7.29646 79.2067 17.251L78.6442 17.2316C78.1932 9.67557 72.3092 3.60986 63.7964 3.60986C55.6592 3.60986 47.5104 8.53613 41.9043 15.04H41.1712C47.3743 6.24119 56.7516 0.0500488 65.5544 0.0500488Z" fill="white"/>
<path fill-rule="evenodd" clip-rule="evenodd" d="M78.6052 20C80.2911 20 81.6579 21.433 81.6579 23.2C81.6579 24.9671 80.2911 26.4 78.6052 26.4C76.9202 26.4 75.5526 24.9671 75.5526 23.2C75.5526 21.433 76.9202 20 78.6052 20Z" fill="#FF6E27"/>
<path fill-rule="evenodd" clip-rule="evenodd" d="M107.424 20.2414L107.864 17.5919H109.928L110.429 15.2369L114.236 14.1646L113.515 17.5919H116L115.559 20.2414H112.934L112.312 23.2903C112.112 24.2716 112.012 24.9025 112.012 25.1829C112.012 25.996 112.406 26.4025 113.195 26.4025C113.422 26.4025 113.809 26.2973 114.357 26.0869L113.956 28.5894C113.115 28.7296 112.367 28.7996 111.712 28.7996C110.723 28.7996 109.941 28.5473 109.367 28.0425C108.726 27.482 108.405 26.6549 108.405 25.5613C108.405 25.1127 108.512 24.3628 108.726 23.3114L109.348 20.2414H107.424ZM99.4509 22.0286H103.88C103.88 20.5849 103.293 19.8629 102.117 19.8629C101.395 19.8629 100.787 20.0942 100.293 20.5569C99.8791 20.9353 99.5982 21.4261 99.4509 22.0286ZM105.303 25.5194L104.842 28.1899C103.56 28.5962 102.344 28.7996 101.195 28.7996C99.5112 28.7996 98.1818 28.3091 97.2065 27.3276C96.2853 26.4165 95.8244 25.239 95.8244 23.7951C95.8244 22.2249 96.2853 20.8302 97.2065 19.6104C98.3558 18.0965 99.979 17.3396 102.077 17.3396C103.533 17.3396 104.675 17.7181 105.504 18.4752C106.425 19.3021 106.886 20.5147 106.886 22.1129C106.886 22.6737 106.799 23.3605 106.625 24.1734H99.2311C99.2845 25.5753 100.219 26.2763 102.037 26.2763C103.212 26.2763 104.301 26.0237 105.303 25.5194ZM82.9827 28.5473L84.606 20.4515C84.8059 19.4425 84.9532 18.4892 85.0463 17.5919H88.3935L88.1127 19.3791H88.1531C89.3154 18.0195 90.6578 17.3396 92.1811 17.3396C93.1961 17.3396 93.9905 17.6936 94.5659 18.4017C95.1398 19.1093 95.4276 20.017 95.4276 21.1244C95.4276 21.6713 95.3337 22.4421 95.1467 23.4374L94.1844 28.5473H90.4571L91.4591 23.4165C91.6194 22.5894 91.6995 22.0356 91.6995 21.7556C91.6995 20.9001 91.2325 20.4798 90.2968 20.4938C88.9079 20.5217 88.0127 21.5238 87.6121 23.5006L86.5894 28.5473H82.9827ZM66.2486 25.1833C66.2486 25.4637 66.3622 25.7159 66.5895 25.9402C66.8165 26.1646 67.1101 26.2766 67.4712 26.2766C68.2194 26.2766 68.8273 26.0386 69.2948 25.562C69.7623 25.0852 70.0629 24.4613 70.1966 23.6904C70.0764 23.6622 69.7558 23.6413 69.2346 23.6272C68.3664 23.5994 67.6515 23.7322 67.0901 24.0267C66.5293 24.3212 66.2486 24.7069 66.2486 25.1833ZM69.7155 28.5477L69.8757 27.0127L69.836 26.9708V27.0127C69.1145 28.2044 67.9453 28.8 66.329 28.8C64.0043 28.8 62.8419 27.7417 62.8419 25.6249C62.8419 24.3353 63.4032 23.3257 64.5254 22.5968C65.5542 21.938 66.9099 21.6085 68.5934 21.6085C69.0608 21.6085 69.709 21.6436 70.537 21.7136C70.5641 21.6158 70.5772 21.4683 70.5772 21.2721C70.5772 20.8657 70.4003 20.529 70.0464 20.2629C69.692 19.9964 69.228 19.8633 68.6536 19.8633C67.451 19.8633 66.3223 20.1505 65.2667 20.7255L65.6275 17.9708C66.803 17.5501 68.0788 17.34 69.4549 17.34C70.8046 17.34 71.8731 17.6202 72.6614 18.1811C73.5434 18.8259 73.9843 19.7861 73.9843 21.0618C73.9843 21.6506 73.8171 22.7018 73.4832 24.2158C73.069 26.0386 72.795 27.4825 72.6614 28.5477H69.7155ZM62.7056 25.5406L62.1844 28.3795C61.3827 28.6598 60.3541 28.8 59.0983 28.8C57.6153 28.8 56.4129 28.3095 55.4911 27.3282C54.6094 26.3887 54.1686 25.2111 54.1686 23.7954C54.1686 21.9731 54.7967 20.4415 56.0525 19.2009C57.3082 17.9601 58.9245 17.34 60.9017 17.34C61.9706 17.34 63.0662 17.5853 64.1884 18.076L63.4071 20.7044C62.592 20.3119 61.817 20.1155 61.0824 20.1155C60.1339 20.1155 59.3722 20.4168 58.7979 21.0199C58.1966 21.6647 57.8959 22.5409 57.8959 23.6484C57.8959 24.3212 58.1231 24.8855 58.5774 25.3412C59.0316 25.7965 59.6329 26.0245 60.381 26.0245C61.1824 26.0245 61.9573 25.8629 62.7056 25.5406ZM48.4008 28.5477L50.5652 17.5923H54.2126L52.0481 28.5477H48.4008ZM42.2126 17.5923H45.5592L45.1583 19.8424H45.1983C45.5192 19.1413 45.9465 18.5665 46.4809 18.1179C47.0821 17.5993 47.73 17.34 48.4247 17.34C49.0258 17.34 49.5335 17.4308 49.9476 17.6133L49.1262 20.9567C48.7521 20.6481 48.1978 20.4941 47.4628 20.4941C46.0735 20.4941 45.1783 21.4963 44.7775 23.5011L43.7556 28.5477H40.1484L41.7715 20.452C41.9719 19.4425 42.1189 18.4896 42.2126 17.5923ZM33.058 22.0291H37.4869C37.4869 20.5853 36.8989 19.8633 35.7234 19.8633C35.0018 19.8633 34.3941 20.0945 33.8996 20.5569C33.4855 20.9357 33.2049 21.4265 33.058 22.0291ZM38.9097 25.5198L38.4488 28.1901C37.1662 28.5967 35.9505 28.8 34.8016 28.8C33.1181 28.8 31.7887 28.3095 30.8134 27.3282C29.8919 26.4168 29.4309 25.2393 29.4309 23.7954C29.4309 22.2254 29.8919 20.8303 30.8134 19.6107C31.9624 18.0968 33.5857 17.34 35.6832 17.34C37.1395 17.34 38.2817 17.7185 39.1099 18.4753C40.0321 19.3026 40.4929 20.5152 40.4929 22.1133C40.4929 22.6741 40.4059 23.3609 40.2321 24.1738H32.8376C32.891 25.5757 33.8261 26.2766 35.6433 26.2766C36.8189 26.2766 37.9077 26.0245 38.9097 25.5198ZM11.0382 28.5477L12.6613 20.452C12.8617 19.4425 13.0088 18.4896 13.1024 17.5923H16.3085L15.9078 19.5899L15.9479 19.5689C16.8965 18.0828 18.1257 17.34 19.6352 17.34C20.2898 17.34 20.8644 17.5221 21.3587 17.8865C21.9063 18.293 22.2471 18.8539 22.3807 19.5689C23.3294 18.0828 24.5715 17.34 26.108 17.34C27.0165 17.34 27.758 17.5781 28.3324 18.0548C29.0139 18.6296 29.3545 19.4779 29.3545 20.5991C29.3545 21.4265 29.2742 22.2465 29.114 23.0594L28.0319 28.5477H24.4248L25.4669 23.2275C25.6005 22.5409 25.6672 22.0081 25.6672 21.6296C25.6672 20.8725 25.2798 20.4941 24.5048 20.4941C23.8502 20.4941 23.3358 20.8445 22.9619 21.5457C22.7347 21.9661 22.5344 22.6179 22.3605 23.5011L21.3386 28.5477H17.7315L18.7735 23.2275C18.9071 22.5409 18.9739 22.0081 18.9739 21.6296C18.9739 20.8725 18.5865 20.4941 17.8116 20.4941C17.157 20.4941 16.6426 20.8445 16.2685 21.5457C16.0414 21.9661 15.8411 22.6179 15.6675 23.5011L14.6454 28.5477H11.0382ZM3.40675 25.1833C3.40675 25.4637 3.52037 25.7159 3.74749 25.9402C3.9746 26.1646 4.26845 26.2766 4.62915 26.2766C5.37746 26.2766 5.98523 26.0386 6.45281 25.562C6.92039 25.0852 7.22097 24.4613 7.35467 23.6904C7.23432 23.6622 6.91366 23.6413 6.39258 23.6272C5.52427 23.5994 4.80961 23.7322 4.24838 24.0267C3.68737 24.3212 3.40675 24.7069 3.40675 25.1833ZM50.8993 16.698L51.4761 13.6H54.9136L54.3368 16.698H50.8993ZM6.87363 28.5477L7.03401 27.0127L6.99397 26.9708V27.0127C6.27246 28.2044 5.10357 28.8 3.48706 28.8C1.1624 28.8 0 27.7417 0 25.6249C0 24.3353 0.561119 23.3257 1.68324 22.5968C2.71206 21.938 4.06814 21.6085 5.75139 21.6085C6.2192 21.6085 6.86701 21.6436 7.6953 21.7136C7.72209 21.6158 7.73544 21.4683 7.73544 21.2721C7.73544 20.8657 7.55845 20.529 7.20438 20.2629C6.8503 19.9964 6.38608 19.8633 5.8115 19.8633C4.6093 19.8633 3.48033 20.1505 2.42471 20.7255L2.78563 17.9708C3.96114 17.5501 5.23715 17.34 6.6132 17.34C7.96256 17.34 9.03144 17.6202 9.81955 18.1811C10.7013 18.8259 11.1422 19.7861 11.1422 21.0618C11.1422 21.6506 10.975 22.7018 10.6412 24.2158C10.2271 26.0386 9.95326 27.4825 9.81955 28.5477H6.87363Z" fill="white"/>
</g>
<defs>
<clipPath id="clip0_63_466">
<rect width="116" height="48" fill="white"/>
</clipPath>
</defs>
</svg>
